<?xml version="1.0" encoding="UTF-8"?>
<!DOCTYPE svg PUBLIC "-//W3C//DTD SVG 1.1//EN" "http://www.w3.org/Graphics/SVG/1.1/DTD/svg11.dtd">
<svg version="1.1" xmlns="http://www.w3.org/2000/svg" xmlns:xlink="http://www.w3.org/1999/xlink" x="0" y="0" width="128" height="128" viewBox="0, 0, 128, 128">
  <g id="Background">
    <rect x="0" y="0" width="128" height="128" fill="#000000" fill-opacity="0"/>
  </g>
  <g id="Layer_1">
    <path d="M64,4 C97.137,4 124,30.863 124,64 C124,97.137 97.137,124 64,124 C30.863,124 4,97.137 4,64 C4,30.863 30.863,4 64,4 z M97.924,39.268 L39.268,97.924 C46.769,102.991 54.821,106.08 64,106 C87.196,106 106,87.196 106,64 C105.775,55.079 103.28,46.498 97.924,39.268 z M64,22 L64,22 C40.804,22 22,40.804 22,64 C22.226,72.921 24.719,81.502 30.075,88.732 L88.732,30.076 C81.231,25.009 73.179,21.92 64,22 z" fill="#000000" fill-opacity="0.3"/>
  </g>
</svg>
