<?xml version="1.0" encoding="UTF-8"?>
<!DOCTYPE svg PUBLIC "-//W3C//DTD SVG 1.1//EN" "http://www.w3.org/Graphics/SVG/1.1/DTD/svg11.dtd">
<svg version="1.1" xmlns="http://www.w3.org/2000/svg" xmlns:xlink="http://www.w3.org/1999/xlink" x="0" y="0" width="128" height="128" viewBox="0, 0, 128, 128">
  <g id="Background">
    <rect x="0" y="0" width="128" height="128" fill="#000000" fill-opacity="0"/>
  </g>
  <g id="Layer_1">
    <path d="M64,8 C94.928,8 120,33.072 120,64 C120,94.928 94.928,120 64,120 C33.072,120 8,94.928 8,64 C8,33.072 33.072,8 64,8 z M99.836,35.235 L35.235,99.836 C43.295,106.488 53.593,109.928 64,110 C89.405,110 110,89.405 110,64 C109.737,53.605 106.634,43.283 99.836,35.235 z M64,18 C38.892,18.634 18.072,38.455 18,64 C18.263,74.395 21.366,84.717 28.164,92.765 L92.765,28.164 C85.541,22.479 77.1,19.043 67.893,18.185 L64,18 z" fill="#FF0000" fill-opacity="0.9"/>
    <path d="M87.919,63.995 L87.919,64 C87.816,66.217 87.978,65.287 87.613,66.816 C87.947,65.18 87.812,66.114 87.919,64 L87.919,63.995 z" fill="#000000" fill-opacity="0.6"/>
    <path d="M86.347,57.006 C87.085,58.698 86.951,58.075 87.092,58.769 L86.347,57.006 z" fill="#000000" fill-opacity="0.6"/>
    <path d="M87.695,62.995 L87.695,63 C87.592,65.217 87.754,64.287 87.389,65.816 C87.723,64.18 87.588,65.114 87.695,63 L87.695,62.995 z" fill="#000000" fill-opacity="0.6"/>
    <path d="M86.123,56.006 C86.861,57.698 86.727,57.075 86.868,57.769 L86.123,56.006 z" fill="#000000" fill-opacity="0.6"/>
  </g>
</svg>
